<svg width="40" height="40" viewBox="0 0 40 40" fill="none" xmlns="http://www.w3.org/2000/svg">
<path d="M9.96885 25.5758L19.2 38.6534V39.1998H20.8V38.6534L30.0312 25.5758C35.1241 25.3294 39.2001 20.7766 39.2001 15.1998C39.2001 9.4654 34.8937 4.7998 29.6 4.7998C28.9792 4.7998 28.3464 4.8926 27.712 5.0334C25.9616 2.4718 23.1608 0.799805 20 0.799805C16.8392 0.799805 14.0376 2.471 12.288 5.0334C11.6544 4.8934 11.0216 4.7998 10.4 4.7998C5.10645 4.7998 0.800049 9.4654 0.800049 15.1998C0.800049 20.7766 4.87605 25.3294 9.96885 25.5758ZM11.8504 25.4678C14.336 25.0574 16.5672 23.6046 18.0856 21.391C18.4496 21.471 18.8224 21.5214 19.1992 21.5558V35.879L11.8504 25.4678ZM20.8 21.5558C21.1776 21.5222 21.5504 21.471 21.9136 21.391C23.432 23.6038 25.6632 25.0574 28.1488 25.4678L20.8 35.879V21.5558ZM28.5529 6.4806C28.9057 6.427 29.2552 6.3998 29.6 6.3998C34.0112 6.3998 37.6 10.3478 37.6 15.1998C37.6 20.0518 34.0112 23.9998 29.6 23.9998C27.2288 23.9998 25.0072 22.8494 23.4937 20.8782C23.5008 20.875 23.508 20.871 23.5152 20.8678C23.6952 20.791 23.8704 20.707 24.0448 20.6182C24.1256 20.5774 24.2057 20.5358 24.2857 20.4926C24.4384 20.4094 24.5904 20.3246 24.7392 20.2334C24.8432 20.1694 24.9432 20.0998 25.0441 20.0326C25.212 19.919 25.3784 19.8038 25.5392 19.6798C25.7032 19.5542 25.8657 19.4246 26.0217 19.2886C26.1145 19.207 26.2032 19.1206 26.2936 19.035C26.4144 18.9214 26.5336 18.8054 26.6488 18.6854C26.736 18.5942 26.8216 18.5014 26.9064 18.407C27.0216 18.2774 27.132 18.1446 27.24 18.0094C27.3136 17.9182 27.3881 17.8294 27.4585 17.735C27.6201 17.519 27.7745 17.2966 27.92 17.067C27.9809 16.971 28.0352 16.8694 28.0936 16.771C28.1833 16.6182 28.272 16.4646 28.3545 16.3062C28.4168 16.187 28.4753 16.0662 28.5329 15.9446C28.604 15.7942 28.6721 15.6414 28.7369 15.487C28.788 15.3654 28.8393 15.2454 28.8864 15.1214C28.9713 14.8974 29.048 14.6686 29.1176 14.4374C29.1536 14.319 29.1856 14.199 29.2176 14.079C29.2752 13.8638 29.328 13.647 29.3728 13.427C29.3952 13.315 29.4144 13.2022 29.4336 13.0886C29.4696 12.8806 29.4984 12.6702 29.5224 12.4582C29.5336 12.3558 29.5464 12.2534 29.5553 12.1502C29.5824 11.8358 29.6 11.5198 29.6 11.1998C29.6 10.8086 29.576 10.4238 29.5368 10.0438C29.5249 9.93021 29.504 9.81981 29.4896 9.707C29.4536 9.4382 29.4128 9.17101 29.3576 8.9094C29.3312 8.7814 29.2984 8.65581 29.2672 8.5286C29.2064 8.28221 29.1392 8.03901 29.0624 7.80061C29.0224 7.675 28.9808 7.551 28.936 7.4278C28.848 7.183 28.7496 6.9454 28.6456 6.7102C28.612 6.6342 28.5881 6.555 28.5529 6.4806ZM20 2.3998C22.7504 2.3998 25.1808 3.935 26.6208 6.267L26.6448 6.307C26.66 6.3326 26.6728 6.3598 26.688 6.3854C26.8736 6.6974 27.036 7.0214 27.1832 7.3526C27.2144 7.4222 27.2457 7.49181 27.2753 7.5622C27.4216 7.91421 27.5505 8.2742 27.6529 8.643C27.6617 8.6742 27.6673 8.7078 27.6753 8.739C27.7649 9.0742 27.8312 9.4166 27.8832 9.76221C27.8976 9.8566 27.9112 9.951 27.9224 10.0462C27.9681 10.427 27.9993 10.811 27.9993 11.1998C27.9993 11.4782 27.984 11.7534 27.9616 12.0254C27.9536 12.1222 27.94 12.2166 27.9288 12.3126C27.9088 12.4854 27.8864 12.6574 27.8576 12.827C27.8384 12.9398 27.816 13.0518 27.7929 13.163C27.7617 13.3126 27.7272 13.4598 27.6888 13.6062C27.6592 13.7214 27.6288 13.8374 27.5944 13.951C27.552 14.0918 27.504 14.2302 27.4552 14.3678C27.4168 14.4774 27.3801 14.5886 27.3377 14.6966C27.2712 14.8654 27.1961 15.0294 27.1201 15.1918C27.0529 15.3366 26.9808 15.479 26.9064 15.6198C26.832 15.7598 26.7577 15.9006 26.6768 16.0358C26.616 16.1374 26.5496 16.2342 26.4848 16.3326C26.4104 16.4454 26.336 16.5582 26.2576 16.667C26.1856 16.7662 26.1112 16.863 26.0352 16.9582C25.956 17.0582 25.8752 17.1558 25.7929 17.2518C25.7104 17.347 25.6272 17.4414 25.5408 17.5326C25.4601 17.6182 25.376 17.699 25.2928 17.7806C25.196 17.8742 25.1008 17.9694 25 18.0582C24.9368 18.1142 24.8704 18.1646 24.8064 18.2182C24.3416 18.603 23.8392 18.939 23.2984 19.2078C23.2968 19.2086 23.2952 19.2094 23.2936 19.2102C23.0984 19.307 22.8976 19.395 22.6936 19.4758C22.684 19.4798 22.6736 19.4838 22.664 19.4878C22.4584 19.5678 22.248 19.639 22.0336 19.7006C21.3832 19.8894 20.7041 19.9998 20 19.9998C19.296 19.9998 18.6168 19.8894 17.9664 19.7006C17.752 19.639 17.5424 19.567 17.3361 19.4878C17.3264 19.4838 17.316 19.4798 17.3064 19.4758C17.1024 19.3958 16.9016 19.3078 16.7064 19.2102C16.7048 19.2094 16.7032 19.2086 16.7016 19.2078C16.1608 18.939 15.6584 18.603 15.1936 18.2182C15.1288 18.1646 15.0624 18.1142 15 18.0582C14.8992 17.9694 14.804 17.875 14.7072 17.7806C14.6233 17.699 14.54 17.6182 14.4592 17.5326C14.3728 17.4414 14.2896 17.347 14.2072 17.2518C14.124 17.1558 14.0432 17.0582 13.9648 16.9582C13.8888 16.8622 13.8144 16.7662 13.7424 16.667C13.664 16.5582 13.5888 16.4454 13.5152 16.3326C13.4504 16.2342 13.384 16.1366 13.3232 16.0358C13.2416 15.9006 13.168 15.7598 13.0936 15.6198C13.0192 15.479 12.9472 15.3374 12.88 15.1918C12.804 15.0286 12.7296 14.8646 12.6624 14.6966C12.62 14.5886 12.5832 14.4774 12.5448 14.3678C12.496 14.2302 12.448 14.0918 12.4056 13.951C12.3712 13.8374 12.3416 13.7222 12.3112 13.6062C12.2736 13.4598 12.2384 13.3126 12.2072 13.163C12.184 13.0518 12.1616 12.9398 12.1424 12.827C12.1136 12.6574 12.0904 12.4854 12.0712 12.3126C12.06 12.2166 12.0464 12.1222 12.0384 12.0254C12.0152 11.7534 12.0008 11.479 12.0008 11.1998C12.0008 10.811 12.032 10.427 12.0776 10.0462C12.0888 9.951 12.1032 9.8574 12.1168 9.7638C12.1688 9.4182 12.236 9.075 12.3248 8.7398C12.3328 8.7086 12.3384 8.675 12.3472 8.64381C12.4496 8.275 12.5784 7.915 12.7248 7.5622C12.7536 7.49181 12.7856 7.42301 12.8168 7.3534C12.964 7.0222 13.1264 6.6974 13.3128 6.3854C13.328 6.3598 13.3408 6.3326 13.356 6.307L13.38 6.267C14.8192 3.935 17.2496 2.3998 20 2.3998ZM10.4 6.3998C10.7448 6.3998 11.0944 6.427 11.4472 6.4806C11.412 6.555 11.388 6.6342 11.3544 6.7094C11.2496 6.9446 11.152 7.183 11.064 7.42701C11.0192 7.551 10.9776 7.675 10.9376 7.7998C10.8608 8.039 10.7936 8.2814 10.7328 8.5278C10.7016 8.6542 10.6688 8.7806 10.6424 8.9086C10.588 9.171 10.5464 9.43741 10.5104 9.70621C10.4952 9.81901 10.4744 9.92941 10.4632 10.043C10.424 10.4238 10.4 10.8086 10.4 11.1998C10.4 11.5198 10.4176 11.8358 10.4448 12.1502C10.4536 12.2534 10.4664 12.3558 10.4776 12.4582C10.5016 12.6702 10.5312 12.8798 10.5664 13.0886C10.5856 13.2014 10.604 13.315 10.6272 13.427C10.672 13.647 10.7248 13.8638 10.7824 14.079C10.8144 14.199 10.8464 14.319 10.8824 14.4374C10.9528 14.6686 11.0296 14.8974 11.1136 15.1214C11.16 15.2454 11.212 15.3654 11.2632 15.487C11.328 15.6414 11.3952 15.7942 11.4672 15.9446C11.5248 16.0662 11.584 16.187 11.6456 16.3062C11.728 16.4638 11.8168 16.6182 11.9064 16.771C11.9648 16.8694 12.0192 16.971 12.08 17.067C12.2256 17.2966 12.38 17.519 12.5416 17.735C12.612 17.8286 12.6872 17.9182 12.76 18.0094C12.8688 18.1446 12.9792 18.2782 13.0936 18.407C13.1776 18.5014 13.2632 18.5942 13.3512 18.6854C13.4664 18.8054 13.5856 18.9214 13.7064 19.035C13.7968 19.1206 13.8848 19.207 13.9784 19.2886C14.1344 19.4254 14.2968 19.5542 14.4608 19.6798C14.6216 19.8038 14.788 19.9198 14.956 20.0326C15.0576 20.1006 15.1576 20.1694 15.2608 20.2334C15.4088 20.3254 15.5608 20.4094 15.7144 20.4926C15.7944 20.5358 15.8744 20.5774 15.9552 20.6182C16.1296 20.7062 16.3048 20.791 16.4848 20.8678C16.4921 20.871 16.4992 20.875 16.5064 20.8782C14.9928 22.8494 12.772 23.9998 10.4 23.9998C5.98885 23.9998 2.40005 20.0518 2.40005 15.1998C2.40005 10.3478 5.98885 6.3998 10.4 6.3998Z" fill="black"/>
</svg>
