<svg width="17" height="16" viewBox="0 0 17 16" fill="none" xmlns="http://www.w3.org/2000/svg">
<path d="M7.24198 0.690984C7.54134 -0.230327 8.84475 -0.230329 9.1441 0.690982L10.3259 4.32827C10.4598 4.74029 10.8438 5.01925 11.277 5.01925H15.1014C16.0702 5.01925 16.4729 6.25887 15.6892 6.82827L12.5952 9.07624C12.2447 9.33088 12.098 9.78225 12.2319 10.1943L13.4137 13.8316C13.7131 14.7529 12.6586 15.519 11.8749 14.9496L8.78083 12.7016C8.43034 12.447 7.95574 12.447 7.60526 12.7016L4.51119 14.9496C3.72748 15.519 2.673 14.7529 2.97235 13.8316L4.15418 10.1943C4.28805 9.78225 4.14139 9.33088 3.79091 9.07624L0.696847 6.82827C-0.086867 6.25887 0.315908 5.01925 1.28463 5.01925H5.1091C5.54233 5.01925 5.92628 4.74029 6.06016 4.32827L7.24198 0.690984Z" fill="#C4C4C4"/>
</svg>
