<svg width="40" height="40" viewBox="0 0 40 40" fill="none" xmlns="http://www.w3.org/2000/svg">
<path fill-rule="evenodd" clip-rule="evenodd" d="M18.0879 7.66072L16.8675 8.18717C16.0262 6.21851 14.7237 4.48109 13.07 3.12146C12.111 2.34238 11.0462 1.70363 9.90734 1.22439L10.4245 0C11.6794 0.527936 12.8527 1.23207 13.9089 2.09116C15.7288 3.58527 17.1622 5.49564 18.0879 7.66072ZM23.4062 8.18715C24.2469 6.21836 25.5495 4.48102 27.2036 3.12208C28.1621 2.34265 29.2268 1.70386 30.3656 1.22501L29.8485 0.000623161C28.5934 0.5283 27.4201 1.23246 26.3641 2.09179C24.5439 3.58608 23.1103 5.49669 22.1845 7.66203L23.4062 8.18715ZM27.9295 7.05051C29.1951 5.71638 30.7052 4.63776 32.3777 3.8732C34.5679 2.8796 36.97 2.44344 39.3697 2.60362L39.4562 1.27421C36.8367 1.10117 34.2151 1.57841 31.8247 2.66344C29.9985 3.49905 28.3495 4.67713 26.967 6.13388L27.9295 7.05051ZM18.5419 10.5285C18.5395 10.6277 18.5142 10.725 18.4679 10.8128L5.49287 36.1713L4.99434 38.0258L7.56678 38.7171L7.22113 40L0.800049 38.2784L1.1457 36.9955L3.71146 37.6868L4.20999 35.8256L5.65242 7.38291C5.65894 7.28407 5.68666 7.18782 5.73372 7.10068C5.78071 7.01353 5.84592 6.93749 5.92495 6.87773C6.00512 6.81884 6.09751 6.77869 6.19536 6.76028C6.29313 6.74193 6.39377 6.74566 6.48995 6.77138L18.0492 9.86891C18.1446 9.8943 18.233 9.94096 18.3079 10.0054C18.3827 10.0699 18.442 10.1505 18.4812 10.2411C18.5234 10.3309 18.5442 10.4293 18.5419 10.5285ZM16.9125 10.9391L6.94195 8.26697L6.45672 17.7855C6.78355 17.7503 7.11311 17.748 7.44048 17.7789C7.97118 17.8569 8.51312 17.7736 8.99589 17.5396C9.4893 17.3346 9.90886 16.9846 10.199 16.5359C10.6285 15.9091 11.2281 15.4179 11.9272 15.1201C12.6112 14.7927 13.3754 14.6703 14.1274 14.7678C14.4012 14.8022 14.6784 14.8 14.9517 14.7611L16.9125 10.9391ZM7.33413 19.1017C7.01952 19.0666 6.70153 19.0779 6.39025 19.1349L5.69231 32.8677L14.267 16.1105L14.2485 16.1091L14.2485 16.1091L14.2482 16.109C14.169 16.1029 14.095 16.0972 14.0211 16.0972C13.4932 16.016 12.953 16.0971 12.4723 16.3298C11.9766 16.5373 11.555 16.8895 11.2625 17.3402C10.8351 17.9648 10.2376 18.4538 9.54095 18.7494C8.85571 19.0805 8.0883 19.203 7.33413 19.1017ZM36.5612 37.6868L39.1269 36.9955L39.4726 38.2784L33.0515 40L32.7059 38.7171L35.2783 38.0258L34.7798 36.1713L21.8047 10.8128C21.7601 10.7245 21.7358 10.6273 21.7335 10.5285C21.7312 10.4296 21.7509 10.3314 21.7914 10.2411C21.8306 10.1505 21.8899 10.0699 21.9648 10.0054C22.0396 9.94096 22.128 9.8943 22.2235 9.86891L33.7827 6.77138C33.8788 6.74566 33.9795 6.74193 34.0773 6.76028C34.1751 6.77869 34.2675 6.81884 34.3477 6.87773C34.4267 6.93749 34.4919 7.01353 34.5389 7.10068C34.586 7.18782 34.6137 7.28407 34.6202 7.38291L36.0626 35.8256L36.5612 37.6868ZM23.3668 10.9391L25.321 14.7611C25.5943 14.8 25.8714 14.8022 26.1452 14.7678C26.8973 14.6703 27.6614 14.7927 28.3454 15.1201C29.0445 15.4179 29.644 15.9091 30.0736 16.5359C30.3638 16.9846 30.7834 17.3346 31.2768 17.5396C31.7595 17.7736 32.3015 17.8569 32.8322 17.7789C33.1595 17.748 33.4891 17.7503 33.8159 17.7855L33.3307 8.26697L23.3668 10.9391ZM26.0242 16.1091L26.0056 16.1105L34.5804 32.8677L33.8824 19.1349C33.5689 19.0777 33.2487 19.0666 32.9319 19.1017C32.1798 19.2026 31.4147 19.0801 30.7317 18.7494C30.035 18.4538 29.4375 17.9648 29.0101 17.3402C28.7176 16.8895 28.296 16.5373 27.8004 16.3298C27.3196 16.0971 26.7795 16.016 26.2516 16.0972C26.1776 16.0972 26.1035 16.1029 26.0242 16.1091L26.0242 16.1091ZM12.3437 7.05051C11.0781 5.71644 9.56803 4.6378 7.8955 3.87324C5.70509 2.8803 3.30318 2.44417 0.903494 2.60366L0.817082 1.27424C3.43653 1.1011 6.05818 1.57834 8.44853 2.66348C10.2749 3.49891 11.9239 4.67702 13.3062 6.13388L12.3437 7.05051Z" fill="#CE2127"/>
</svg>
